<?xml version="1.0" encoding="utf-8"?>
<!-- Generator: Adobe Illustrator 19.2.1, SVG Export Plug-In . SVG Version: 6.00 Build 0)  -->
<svg version="1.1" id="Layer_1" xmlns="http://www.w3.org/2000/svg" xmlns:xlink="http://www.w3.org/1999/xlink" x="0px" y="0px"
	 viewBox="0 0 23 23" style="enable-background:new 0 0 23 23;" xml:space="preserve">
<style type="text/css">
	.st0{fill:#2D2D2D;}
</style>
<g>
	<path class="st0" d="M10.7,2c1.1,0,3.4,0,3.4,4.5c0,2.5-1.6,4.9-3.4,4.9c-1.8,0-3.4-2.3-3.4-4.9C7.3,2,9.6,2,10.7,2 M10.7,0
		c-4,0-5.4,2.9-5.4,6.5c0,3.6,2.4,6.9,5.4,6.9c3,0,5.4-3.3,5.4-6.9C16.1,2.9,14.8,0,10.7,0L10.7,0z"/>
</g>
<g>
	<path class="st0" d="M11.5,17.3c3,0,7.7,0.5,9.1,3.6c-2.4,0-6.3,0-9.1,0c-2.1,0-6.5,0-9.2,0C2.9,19.2,4.9,17.3,11.5,17.3
		 M11.5,15.3C5.1,15.3,0,17,0,23c0,0,11.5,0,11.5,0S23,23,23,23C23,17.5,17.9,15.3,11.5,15.3L11.5,15.3z"/>
</g>
</svg>
