<?xml version="1.0" encoding="utf-8"?>
<!-- Generator: Adobe Illustrator 19.2.1, SVG Export Plug-In . SVG Version: 6.00 Build 0)  -->
<svg version="1.1" id="Layer_1" xmlns="http://www.w3.org/2000/svg" xmlns:xlink="http://www.w3.org/1999/xlink" x="0px" y="0px"
	 viewBox="0 0 22 22.5" style="enable-background:new 0 0 22 22.5;" xml:space="preserve">
<style type="text/css">
	.st0{fill-rule:evenodd;clip-rule:evenodd;fill:#2D2D2D;}
</style>
<g>
	<g>
		<path class="st0" d="M18.6,14.6L15,18.3l-1.1-1.1c-0.2-0.2-0.5-0.2-0.7,0c-0.2,0.2-0.2,0.5,0,0.7l1.5,1.5c0.1,0.1,0.2,0.1,0.4,0.1
			c0.1,0,0.3,0,0.4-0.1l4-4c0.2-0.2,0.2-0.5,0-0.7C19.2,14.5,18.8,14.5,18.6,14.6z M6.5,16h-2C4.2,16,4,16.2,4,16.5v2
			C4,18.8,4.2,19,4.5,19C4.8,19,5,18.8,5,18.5V17h1.5C6.8,17,7,16.8,7,16.5C7,16.2,6.8,16,6.5,16z M9,14c0.3,0,0.5-0.2,0.5-0.5V12
			H11c0.3,0,0.5-0.2,0.5-0.5c0-0.3-0.2-0.5-0.5-0.5H9c-0.3,0-0.5,0.2-0.5,0.5v2C8.5,13.8,8.7,14,9,14z M6.5,11h-2
			C4.2,11,4,11.2,4,11.5v2C4,13.8,4.2,14,4.5,14C4.8,14,5,13.8,5,13.5V12h1.5C6.8,12,7,11.8,7,11.5C7,11.2,6.8,11,6.5,11z M13.5,9.5
			C13.8,9.5,14,9.3,14,9V7.5h1.5C15.8,7.5,16,7.3,16,7c0-0.3-0.2-0.5-0.5-0.5h-2C13.2,6.5,13,6.7,13,7v2C13,9.3,13.2,9.5,13.5,9.5z
			 M9,9.5c0.3,0,0.5-0.2,0.5-0.5V7.5H11c0.3,0,0.5-0.2,0.5-0.5c0-0.3-0.2-0.5-0.5-0.5H9C8.7,6.5,8.5,6.7,8.5,7v2
			C8.5,9.3,8.7,9.5,9,9.5z M6.5,6.5h-2C4.2,6.5,4,6.7,4,7v2c0,0.3,0.2,0.5,0.5,0.5C4.8,9.5,5,9.3,5,9V7.5h1.5C6.8,7.5,7,7.3,7,7
			C7,6.7,6.8,6.5,6.5,6.5z M20,12.4V3.5C20,2.7,19.3,2,18.5,2H15V1.5C15,0.7,14.3,0,13.5,0C12.7,0,12,0.7,12,1.5V2H7V1.5
			C7,0.7,6.3,0,5.5,0S4,0.7,4,1.5V2H1.5C0.7,2,0,2.7,0,3.5V21c0,0.8,0.7,1.5,1.5,1.5h14c0.1,0,0.1,0,0.2,0c0.2,0,0.4,0,0.6,0
			c3.2,0,5.8-2.6,5.8-5.7C22,15,21.2,13.5,20,12.4z M13,1.5C13,1.2,13.2,1,13.5,1S14,1.2,14,1.5v2.4c0,0.3-0.2,0.5-0.5,0.5
			S13,4.2,13,3.9V1.5z M5,1.5C5,1.2,5.2,1,5.5,1S6,1.2,6,1.5v2.4c0,0.3-0.2,0.5-0.5,0.5S5,4.2,5,3.9V1.5z M1.5,21.5
			C1.2,21.5,1,21.3,1,21V3.5C1,3.2,1.2,3,1.5,3H4v0.9c0,0.8,0.7,1.5,1.5,1.5S7,4.8,7,3.9V3h5v0.9c0,0.8,0.7,1.5,1.5,1.5
			c0.8,0,1.5-0.7,1.5-1.5V3h3.5C18.8,3,19,3.2,19,3.5v8.2c-0.8-0.4-1.8-0.7-2.8-0.7c-2.9,0-5.3,2.2-5.7,5H9c-0.3,0-0.5,0.2-0.5,0.5
			v2C8.5,18.8,8.7,19,9,19c0.3,0,0.5-0.2,0.5-0.5V17h1c0.1,1.9,1.1,3.5,2.5,4.5H1.5z M16.3,21.5c-2.6,0-4.8-2.1-4.8-4.7
			c0-2.6,2.1-4.8,4.8-4.8s4.7,2.1,4.7,4.8C21,19.4,18.9,21.5,16.3,21.5z"/>
	</g>
</g>
</svg>
