<?xml version="1.0" encoding="utf-8"?>
<!-- Generator: Adobe Illustrator 19.2.1, SVG Export Plug-In . SVG Version: 6.00 Build 0)  -->
<svg version="1.1" id="Layer_1" xmlns="http://www.w3.org/2000/svg" xmlns:xlink="http://www.w3.org/1999/xlink" x="0px" y="0px"
	 viewBox="0 0 23.7 20.5" style="enable-background:new 0 0 23.7 20.5;" xml:space="preserve">
<style type="text/css">
	.st0{fill:#CCCCCC;}
	.st1{fill-rule:evenodd;clip-rule:evenodd;fill:#ffffff;}
</style>
<g>
	<path class="st0" d="M10.3,2c4.6,0,8.3,3.7,8.3,8.2c0,4.5-3.7,8.2-8.3,8.2c-4.6,0-8.3-3.7-8.3-8.2C2,5.7,5.7,2,10.3,2 M10.3,0
		C4.6,0,0,4.6,0,10.2s4.6,10.2,10.3,10.2c5.7,0,10.3-4.6,10.3-10.2S16,0,10.3,0L10.3,0z"/>
</g>
<path class="st1" d="M3.4,9.3l6.8,5.9L23.7,1.7l-1.2-1.3L10.2,12.7L4.5,7.9L3.4,9.3z"/>
</svg>
