<?xml version="1.0" encoding="utf-8"?>
<!-- Generator: Adobe Illustrator 19.2.1, SVG Export Plug-In . SVG Version: 6.00 Build 0)  -->
<svg version="1.1" id="Слой_1" xmlns="http://www.w3.org/2000/svg" xmlns:xlink="http://www.w3.org/1999/xlink" x="0px" y="0px"
	 viewBox="0 0 238.3 215.1" style="enable-background:new 0 0 238.3 215.1;" xml:space="preserve">
<style type="text/css">
	.st0{fill:#2D2D2D;}
</style>
<g>
	<path class="st0" d="M228.2,165.2c0.1,0.1,0.1,0.3,0,0.4l0,0c-0.1,0.1-0.3,0.1-0.4,0l-16.1-18.4c-0.1-0.1-0.1-0.3,0-0.4l0,0
		c0.1-0.1,0.3-0.1,0.4,0L228.2,165.2z"/>
	<path class="st0" d="M230.3,163.4c0.1,0.1,0.1,0.3,0,0.4l0,0c-0.1,0.1-0.3,0.1-0.4,0l-16.1-18.4c-0.1-0.1-0.1-0.3,0-0.4l0,0
		c0.1-0.1,0.3-0.1,0.4,0L230.3,163.4z"/>
	<path class="st0" d="M18.9,159.3c-0.1,0.1-0.3,0.1-0.4,0l0,0c-0.1-0.1-0.1-0.3,0-0.4L36.3,142c0.1-0.1,0.3-0.1,0.4,0l0,0
		c0.1,0.1,0.1,0.3,0,0.4L18.9,159.3z"/>
	<path class="st0" d="M21,161.6c-0.1,0.1-0.3,0.1-0.4,0l0,0c-0.1-0.1-0.1-0.3,0-0.4l17.7-16.9c0.1-0.1,0.3-0.1,0.4,0l0,0
		c0.1,0.1,0.1,0.3,0,0.4L21,161.6z"/>
	<g>
		<path class="st0" d="M144.8,64.8c0.9,0.3,1.8,0.1,2.7-0.5c0.8-0.6,1.3-1.3,1.6-2.3c0.3-1,0.2-1.9-0.2-2.8c-0.4-0.9-1.1-1.5-2-1.8
			c-1-0.3-1.9-0.1-2.7,0.5c-0.8,0.6-1.3,1.3-1.6,2.3c-0.3,1-0.2,1.9,0.2,2.8C143.1,63.9,143.8,64.5,144.8,64.8z"/>
		<path class="st0" d="M158.2,54.8c0.2,0.9,0.9,3.6,1,3.8l1.5-1.1c0,0,2.5-1.3,2.9-2c-0.2,0.2-3.1,1.2-3.1,1.2s0,0,0.7-0.9
			c1-0.7,3.1-1.7,2.8-2c-1.3,0.9-2.5,1-2.5,1l0.3-0.8c0,0,2.3-1.4,2.8-2c0.5-0.6,0.7-1.7,0.7-1.7s-0.8,0.3-1.8,0.7
			c0.9-1,0.6-2.5,0.6-2.5s-0.2,0.8-1.1,1.6c0.1-0.6,1.4-2.3,1.4-2.3s-0.4,0.3-1.4,1.5c-1,1.2-1.3,3.5-1.3,3.5s-0.7-0.3-0.5-2.3
			c-1.2,1.4-0.3,2.8-0.3,2.8s-0.3,0.9-0.8,1.9c-0.5-0.6-0.7-2.1-0.7-3.4c-1.1,1.5,0.4,3.8,0.4,3.8l-0.4,0.9
			C159.4,56.5,158.8,56,158.2,54.8z"/>
		<path class="st0" d="M116.9,154.7c-0.8-0.2-1.6,0-2.4,0.5c-0.8,0.5-1.2,1.2-1.4,2c0,0.2,0.1,0.3,0.4,0.4c1.3,0.3,2.9,0.5,4.7,0.7
			c0.5,0,0.8,0,0.8-0.1c0.2-0.7,0-1.4-0.4-2.1C118.2,155.3,117.6,154.9,116.9,154.7z"/>
		<path class="st0" d="M146.2,132.6c0,0-1.3,1-3.3,3.9c0.2-1.1,2.8-4.6,2.8-4.8c-0.1-0.2-0.6-0.9-0.6-0.9c-0.6,0.3-2.3,2.4-2.9,4.2
			c-0.4-2.7,0.4-6.6,0.4-6.6s0-0.5-0.1,0.2c-1.8,3.9,0.2,9.5,0.2,9.5s-0.6-0.3-1.5-0.7c0,0,3.6,3.1,3.8,2.8c0.4-0.2,0.8-0.5,1.7-0.5
			C147.9,135.7,146.2,132.6,146.2,132.6z"/>
		<path class="st0" d="M103.2,149c-0.9-0.6-1.9-0.7-2.9-0.4c-1,0.3-1.8,0.9-2.4,1.8c-0.6,0.9-0.9,1.9-0.7,3c0.1,1.1,0.6,1.9,1.6,2.5
			c0.9,0.6,1.8,0.7,2.9,0.4c1-0.3,1.8-0.9,2.4-1.8c0.6-0.9,0.8-1.8,0.7-2.9C104.5,150.4,104,149.5,103.2,149z"/>
		<path class="st0" d="M44.3,139.3l-2.4-2.5c-0.4-0.4-1.1-0.4-1.5,0c-0.3,0.2-0.6,0.2-0.8,0.2c-0.1,0-0.1,0-0.2,0
			c-0.1,0-0.2,0-0.4,0.2c-0.3,0.2-0.2,0.4-0.2,0.6c0,0.2,0.1,0.5-0.2,0.8c-0.2,0.2-0.3,0.4-0.3,0.7c0,0.3,0.1,0.5,0.3,0.7l2.4,2.5
			c0.4,0.4,1.1,0.4,1.5,0c0.2-0.2,0.5-0.2,0.8-0.2c0.2,0,0.3,0.1,0.6-0.2c0.2-0.2,0.2-0.3,0.2-0.5c0-0.2-0.1-0.5,0.3-0.9
			C44.7,140.3,44.7,139.7,44.3,139.3z"/>
		<path class="st0" d="M35.8,141.4c0.5-0.5,1.3-0.5,1.8,0l0,0l0.9-0.9l-0.3-0.4c-0.3-0.3-0.4-0.7-0.4-1.1c0-0.4,0.2-0.8,0.5-1.1
			c0.1-0.1,0.1-0.2,0.1-0.4c0-0.2-0.1-0.6,0.3-1c0.2-0.2,0.5-0.3,0.7-0.3c0.1,0,0.2,0,0.3,0.1c0.1,0,0.1,0,0.2,0c0,0,0.1,0,0.2-0.1
			c0.6-0.6,1.6-0.5,2.2,0l0.3,0.4l2.6-2.4c-9.4-25.2-6.6-54.5,10-78.2C82,17.7,134.9,8.4,173.3,35.2c32.3,22.6,44.1,63.7,30.9,99
			l4,4.6l0.4-0.3c0.6-0.5,1.6-0.5,2.2,0.1c0.2,0.2,0.3,0.1,0.4,0.1c0.3,0,0.7,0,0.9,0.3c0.4,0.4,0.3,0.8,0.3,1.1c0,0.2,0,0.3,0,0.4
			c0.3,0.3,0.4,0.7,0.4,1.1c0,0.4-0.2,0.8-0.5,1.1l-0.4,0.3l0.8,0.9c0.5-0.4,1.3-0.4,1.8,0.1l7,8c2-10.3-2.4-18.7-4.5-23.6
			c-3-7-4.3-13.1-2.3-20.5c2-7.4,15.4-11.6,16.4-20.1c1-8.4-4-12.6-9-24.9c-5-12.3-15.9-10.4-13-20c4.6-15.3-8.4-28.1-23.3-28.1
			c-10.4,0-15.7,9.5-22.2,7.7c-6.5-1.8-3.2-14.9-14.4-16c-6.3-0.6-13.5,3.6-18.4,3c-11.1-1.3-12.8-10.7-23.2-9.5
			C94.3,1.6,96,12.8,91.1,13.8c-4.9,1-2.3-2-16.6-6.4c-12-3.7-23.9,3-20,16.7c2.7,9.6,4.2,10.5,0.9,18.5c-3.4,8-9.7,3.4-17,5
			c-8.9,1.9-11.5,11.5-10.7,21.5c0.8,9.9,5,20.4-6.1,26.9c-13.2,7.7-12.2,23.8-3.2,27.9c11,4.9,13.6,14.4,6.9,17.1
			c-13.8,5.6-11.6,11.2-5.5,15.9L35.8,141.4z"/>
		<path class="st0" d="M210.8,145.6L210.8,145.6l-0.8-0.9l-0.4,0.3c-0.3,0.2-0.6,0.4-1,0.4c-0.4,0-0.9-0.2-1.2-0.5
			c-0.1-0.1-0.2-0.1-0.2-0.1c0,0-0.1,0-0.2,0c-0.3,0.1-0.7,0-1-0.4c-0.4-0.5-0.3-0.8-0.2-1.1c0.1-0.2,0.1-0.2,0-0.4
			c-0.5-0.6-0.5-1.6,0.1-2.2l0.4-0.3l-3.2-3.6c-2.3,5.7-5.3,11.2-9,16.5c-26.9,38.4-79.7,47.7-118.1,20.9
			c-13.9-9.7-23.9-22.8-29.9-37.4l-1.8,1.7l0.3,0.4c0.6,0.6,0.6,1.6-0.1,2.2c-0.2,0.1-0.1,0.2-0.1,0.4c0,0.2,0.1,0.6-0.3,1
			c-0.3,0.3-0.7,0.4-1.1,0.3c-0.1,0-0.2-0.1-0.4,0c-0.3,0.3-0.7,0.4-1.1,0.4c-0.4,0-0.8-0.2-1.1-0.5l-0.3-0.4l-0.9,0.9
			c0.5,0.5,0.5,1.3-0.1,1.8L24,159.8c5.3,3.1,11.2,5.4,12.8,6.7c0,0,14.9,27.1,26.1,17.1c11.1-10,22.2,3.3,22.2,9.8
			c0,11.7,17.1,8.8,25.3,14.2c15.5,10.3,34.6,11,44.6-2.9c10-13.9,17.9-18.6,27.4-21.6c9.5-3,17.9,2.1,32.4-16.5
			c2.3-3,4-5.9,5.1-8.7l-9.1-10.4C210.2,146.9,210.3,146.1,210.8,145.6z"/>
		<path class="st0" d="M170.1,95.3c4,4.6,16.6,18.9,25,28.5c7.8-28.8-2.7-60.7-28.6-78.8c-33-23.1-78.5-15.1-101.6,18
			c-13.2,18.9-16.2,41.8-10.2,62.3l10.8-10.3l1.7,1.8l-11.7,11.2c4.8,14.3,14,27.3,27.4,36.6c33,23.1,78.5,15.1,101.6-18
			c2.8-4,5.1-8.1,7-12.4c0,0,0,0,0,0c-2.4-2.7-23.5-28.9-26.4-34.5C162.1,94.1,165.2,89.7,170.1,95.3z M157.7,55.3
			c0.2-3.8,5.2-7.2,7.1-8.5c0.1,0.2,0.7,1.6,0.8,3.3c0.1,1.7,0.4,3.8-1.6,7.4c-1.5,2.7-4.7,2.7-5.4,1.8
			C157.9,58.5,157.4,57.4,157.7,55.3z M152.2,69.5c0.3-0.5,0.7-1.3,1.2-2.3c0.6-1,1-1.8,1.2-2.3c0.3-0.6,0.7-1.4,1.2-2.6
			c0.5-1.2,0.9-2.1,1.2-2.6c0.1-0.1,0.2-0.1,0.3-0.1c0.1,0.1,0.3,0.2,0.6,0.4c0.3,0.2,0.5,0.3,0.6,0.4c0.1,0.1,0.4,0.2,0.6,0.3
			c0.3,0.1,0.5,0.2,0.6,0.3c0.1,0.1,0.1,0.2,0.1,0.3c-0.3,0.6-0.8,1.4-1.5,2.5c-0.7,1.1-1.2,1.9-1.5,2.5c-0.3,0.5-0.7,1.3-1.2,2.4
			c-0.5,1.1-0.9,1.9-1.2,2.4c-0.1,0.2-0.2,0.2-0.3,0.1l-2.1-1.1C152.1,70,152.1,69.8,152.2,69.5z M138.2,65c0.5-1.2,1.2-3.7,2.2-7.3
			c0.4-1.5,0.9-3.7,1.6-6.6c0.3-1.5,0.5-2.3,0.5-2.4c0.1-0.2,0.2-0.3,0.4-0.3c0.3,0.1,0.7,0.2,1.3,0.3c0.1,0,0.4,0.1,0.7,0.1
			c0.3,0,0.5,0.1,0.7,0.1c0.1,0,0.2,0.1,0.1,0.3c-0.1,0.3-0.2,0.7-0.4,1.2c-0.2,0.5-0.3,1-0.4,1.2c-0.1,0.4-0.3,1-0.6,1.9
			c-0.3,0.8-0.5,1.4-0.6,1.9c-0.1,0.3-0.1,0.5,0,0.5c0.1,0,0.1,0,0.2-0.1c1.2-0.9,2.5-1.1,3.9-0.7c1.7,0.4,2.8,1.4,3.5,2.9
			c0.6,1.4,0.7,3,0.3,4.7c-0.4,1.6-1.3,2.8-2.6,3.7c-1.4,1-2.9,1.2-4.4,0.8c-1-0.3-1.9-0.8-2.5-1.5c-0.2-0.4-0.5-0.7-0.7-1.1
			c-0.1,0-0.2,0.2-0.4,0.7c-0.2,0.4-0.3,0.7-0.4,0.6l-2.5-0.7c-0.1,0-0.1-0.1-0.1-0.2C138.1,65.2,138.1,65.1,138.2,65z M120.2,49.6
			c0.3,0,0.6-0.1,0.9-0.1c0.5-0.1,0.8-0.3,0.7-0.8c0-0.5-0.1-1.2-0.3-2.2c-0.1-1-0.2-1.7-0.3-2.2c-0.1-0.9,0-1.3,0.4-1.3
			c0.1,0,1.2,0.1,3.4,0.2c0.3,0,0.4,0.1,0.4,0.4c0.1,0.5,0.1,1.3,0.1,2.4c0,1.1,0.1,1.8,0.1,2.4c0,0.3,0.2,0.5,0.5,0.5l4.3-0.4
			c0.2,0,0.3,0,0.3,0.2c0,0.1,0,0.4,0,0.7c0,0.3,0,0.6,0,0.7c0,0.2,0,0.4,0.1,0.8c0,0.4,0.1,0.6,0.1,0.8c0,0.2-0.1,0.4-0.5,0.4
			c-0.5,0-1.2,0.1-2.2,0.1c-1,0-1.7,0.1-2.2,0.1c-0.1,0-0.1,0.4-0.1,1c0,0.8,0.1,2,0.3,3.5l0.3,2.6c0.1,1,0.3,1.7,0.5,2.1
			c0.3,0.6,1,0.8,1.9,0.7c0.4,0,0.9-0.2,1.6-0.4c0.7-0.2,1.2-0.4,1.6-0.4c0.1,0,0.2,0.1,0.2,0.3c0,0.3,0,0.6,0,1.1
			c0,0.6,0,0.9,0,1.1c0,0.2,0,0.3,0,0.4c0,0.1-0.1,0.2-0.3,0.3c-0.9,0.6-2.4,0.9-4.5,1.2c-2.8,0.3-4.3-0.8-4.5-3.3
			c-0.1-1-0.2-2.5-0.4-4.5c-0.2-2-0.3-3.5-0.4-4.5c-0.1-0.5-0.3-0.7-0.8-0.7c-0.4,0-0.9,0.1-1.3,0.1c-0.3,0-0.4-0.5-0.5-1.4
			c0-0.3,0-0.7,0-1.1C119.7,49.9,119.8,49.7,120.2,49.6z M100.2,58.7c0.7-2.3,2.2-4,4.6-5.1c1.7-0.8,3.4-0.8,5.1-0.3
			c0.3,0.1,0.7,0.3,1.3,0.5c0,0,0.1,0,0.1,0c0.1,0,0-0.4-0.2-1.2c-0.2-0.7-0.2-1.1,0-1.2c0.3-0.1,0.9-0.3,1.8-0.5
			c1-0.2,1.5-0.2,1.6-0.1c0,0,0,0.1,0.1,0.3c0.7,2.7,1.5,4.9,2.3,6.7c0,0.1,1.3,2.5,3.7,7.1l0.1,0.2c0.2,0.3,0.1,0.5-0.2,0.7
			c-0.3,0.1-0.7,0.4-1.3,0.7c-0.6,0.3-1,0.6-1.3,0.7c-0.2,0.1-0.5-0.2-1-0.9c-0.5-0.7-0.7-1-0.8-1c-0.1,0-0.3,0.4-0.6,1
			c-0.4,0.8-0.8,1.5-1.2,2c-0.7,0.8-1.4,1.4-2.3,1.8c-2.1,1-4.3,0.9-6.5-0.1c-2.1-1-3.6-2.5-4.6-4.7C99.8,63.2,99.6,60.9,100.2,58.7
			z M74.7,68.7c0.6-0.6,1.4-1.5,2.6-2.7c1.2-1.2,2-2.1,2.6-2.7c0.5-0.6,1.3-1.5,2.4-2.7c1-1.2,1.8-2.1,2.4-2.7
			c0.4-0.4,0.7-0.5,1-0.3c1.3,0.9,2.1,1.4,2.4,1.7c0.2,0.2,0.2,0.4,0,0.6c-0.7,0.7-1.8,1.8-3.2,3.3c-1.5,1.4-2.6,2.5-3.3,3.3
			c-0.7,0.7-1,1.3-1,1.6c0,0.4,0.4,0.9,1.2,1.6l2,1.8c0.5,0.5,0.9,0.8,1,0.8c0.3,0.2,0.7,0.1,1-0.3c0.1-0.1,0.2-0.3,0.4-0.5
			c0.2-0.2,0.3-0.4,0.4-0.4c1.6-1.7,3-3.3,4.2-4.7c0.5-0.6,1-1.2,1.6-2c0.2-0.2,0.3-0.2,0.5-0.1c0.3,0.3,0.7,0.7,1.2,1.3
			c0.5,0.6,0.9,1,1.2,1.3c0.2,0.1,0.1,0.4-0.1,0.6c-0.1,0.1-0.5,0.5-1.2,1.1c-0.5,0.4-1.5,1.5-3.1,3.2c-1.3,1.4-2.2,2.4-2.5,2.8
			c-0.3,0.4-0.3,0.7,0,1.1c-0.1-0.1,0.3,0.2,1,0.9l1.9,1.8c0.9,0.8,1.6,1.2,2.1,1.1c0.4-0.1,1-0.5,1.8-1.4l1.3-1.5
			c0.6-0.6,2-2.4,4.4-5.5l0.2-0.2c0.1-0.2,0.3-0.2,0.6,0c0.1,0.1,0.3,0.3,0.5,0.7c0.3,0.4,0.4,0.6,0.5,0.7c0.3,0.3,0.7,0.8,1.2,1.5
			c0.1,0.2,0.1,0.4-0.1,0.6c-0.1,0.1-0.3,0.2-0.5,0.5c-1.1,0.9-2.8,2.5-4.8,4.8c-0.6,0.6-1.5,1.6-2.6,2.9c-1.1,1.3-2,2.3-2.6,2.9
			c-0.3,0.3-0.5,0.3-0.8,0.1c-1-0.9-2.4-2.3-4.3-4.2c-1.9-1.9-3.3-3.3-4.3-4.2c-1-0.9-2.9-2.6-5.7-5c-0.7-0.6-1.8-1.5-3.3-2.7
			l-0.2-0.2C74.5,69.2,74.5,69,74.7,68.7z M69.1,116.8l-3.7-3.9c-4.2-4.4,5.1-9.5,17.4-21.3l0.7,0.8c0,0-13.5,10.5-12.6,11.6
			c0.2,0.2,0.6,0.6,1,1.1l12.7-11.4l0.7,0.7l-12.7,11.4c0.5,0.5,1.1,1.1,1.6,1.7l12.3-11.8l0.7,0.7L75,108.2
			c0.5,0.6,1.1,1.1,1.5,1.6l12-12.1l0.7,0.7l-12,12.2c0.6,0.6,1,1.1,1.2,1.2c0.8,0.8,10.3-10.8,11.9-12.2c0.4,0.4,0.9,1,0.9,1
			C78.1,113,73.3,121.3,69.1,116.8z M84.2,122.2c0.4-1.8,1.8-2,1.8-2s-2.3-0.7-2.9,2.2c-4.2,0-2.6-8,1.2-8.4
			c3.5-0.4,4.1,1.2,9.8-1.9c1.3-0.7,5.4,0.3,5.7,1.4c0.3,1-0.5,1.8-0.5,2.7c-0.2,1.9,1.4-0.1,1.6,1.9c0.2,1.9-0.2-1-7.1,8.5
			C90,131.6,82.7,128.5,84.2,122.2z M106.4,156.2c-1,1.5-2.3,2.4-3.9,2.9c-1.7,0.5-3.3,0.3-4.8-0.7c-1-0.6-1.7-1.5-2.1-2.4
			c-0.1-0.5-0.3-0.9-0.4-1.3c-0.1,0-0.3,0.2-0.6,0.6c-0.3,0.4-0.5,0.6-0.6,0.5l-2.4-1.6c-0.1-0.1-0.1-0.1,0-0.2c0,0,0-0.1,0.2-0.2
			c0.9-1.1,2.5-3.3,4.7-6.7c0.9-1.4,2.2-3.4,3.9-6.2c0.9-1.4,1.3-2.2,1.4-2.3c0.1-0.2,0.3-0.2,0.5-0.1c0.3,0.2,0.7,0.4,1.2,0.8
			c0.1,0.1,0.3,0.2,0.7,0.3c0.3,0.1,0.5,0.3,0.7,0.4c0.1,0.1,0.1,0.2,0,0.4c-0.2,0.3-0.4,0.6-0.8,1.1c-0.4,0.5-0.7,0.9-0.8,1.1
			c-0.3,0.4-0.7,1-1.2,1.7c-0.6,0.8-1,1.3-1.2,1.7c-0.2,0.3-0.2,0.5-0.1,0.5c0.1,0,0.1,0,0.2,0c1.5-0.5,2.9-0.3,4.3,0.6
			c1.5,1,2.4,2.4,2.6,4.2C107.9,153,107.4,154.6,106.4,156.2z M122,159.6c-0.1,0.6-0.5,1-1.1,1.1c-0.4,0.1-3.2-0.3-8.3-1.1
			c-0.1,0.8,0.2,1.5,0.8,2.2c0.6,0.7,1.3,1.1,2.1,1.3c1.4,0.3,2.7,0.2,4.1-0.5c0.2-0.1,0.3-0.2,0.5-0.2c0.1,0,0.1,0,0.1,0.1
			c0,0,0.1,0.4,0.3,1c0.2,0.7,0.3,1,0.2,1.1c0,0.1-0.1,0.1-0.3,0.3c-1.6,1.1-3.4,1.4-5.4,0.9c-2-0.5-3.5-1.4-4.4-2.9
			c-0.9-1.5-1.2-3.2-0.7-5.2c0.4-1.8,1.3-3.2,2.8-4.3c1.5-1.1,3.2-1.5,4.9-1.1c1.6,0.4,2.9,1.3,3.7,2.7
			C122.2,156.4,122.4,157.9,122,159.6z M128,110.6c-5.5,2.2-14.5,3.4-20.3,5.4c-2.3,0.8-5.8,4-6.3,3.7c-0.3-0.2,1.2-1.6,1.1-2.2
			c-0.1-1-1.7-1.4-1.2-3c0.3-0.9,0.3-1.2-0.2-1.9c-2.6-4.3-10.2-0.6-11.9-2.4c-0.8-0.9,4.9,0.1,9.1-3.6c4.7-4.1,7.8-11.9,15.8-20.8
			c4.8-5.3,13.2-9.4,35.1-2.7c7.6,2.3,9.8,8.9,10.5,12.5c0.4,9.2-2,15-4.3,17.8c-5.8,7.1-12.7,10.1-15.4,9.5
			c-4.3-1-13.1-7.1-12.7-10.6c4.4-1,5.9-3.7,5.7-4.5C133,106.9,133.4,108.5,128,110.6z M140.8,149.3c-0.4,0.1-1.1,0.3-2,0.4
			c-0.9,0.2-1.6,0.3-2,0.4l1.4,5.8c0.2,0.9,0.6,2.3,1.1,4.1c0.5,1.8,0.9,3.2,1.1,4.1c0.1,0.3,0,0.6-0.2,0.6l-3.4,0.8
			c-0.3,0.1-0.5-0.1-0.6-0.5l-3.3-13.3c-0.1-0.3-0.5-0.4-1.3-0.2c-0.8,0.2-1.3,0.3-1.3,0.2c0,0-0.1-0.3-0.2-0.7
			c-0.1-0.3-0.2-0.7-0.3-1.3c-0.2-0.6-0.3-1-0.4-1.3c-0.1-0.3,0.7-0.6,2.3-1.1c-0.2-0.8-0.4-1.5-0.5-2c-0.6-2.3-0.6-4,0-5.3
			c0.5-1.1,1.3-2.1,2.5-3c1.1-0.8,2.3-1.3,3.6-1.7c0.1,0,0.2,0,0.3,0.1c0,0,0.3,0.5,0.7,1.5c0.5,1,0.7,1.5,0.7,1.6
			c0,0.2-0.1,0.3-0.3,0.3c-0.6,0.2-1.2,0.4-1.8,0.6c-0.7,0.3-1.2,0.7-1.4,1.2c-0.4,0.8-0.3,2.6,0.4,5.4c0.4-0.1,1.1-0.2,2-0.4
			c0.9-0.2,1.6-0.3,2-0.5c0.3-0.1,0.5,0,0.5,0.2c0.1,0.4,0.2,0.9,0.4,1.6c0.2,0.7,0.3,1.2,0.4,1.6
			C141.2,149.1,141.1,149.2,140.8,149.3z M156.8,157.4l-3.3,1.9c-0.2,0.1-0.5,0-0.8-0.5c-0.5-0.8-1.1-2-2-3.6
			c-0.9-1.6-1.5-2.8-2-3.6c-0.5-0.9-1.3-2.2-2.5-3.9c-1.2-1.7-2-3-2.5-3.9c-0.1-0.2,0-0.4,0.2-0.5c0.2-0.1,0.5-0.3,1-0.4
			c0.3-0.1,0.6-0.2,0.7-0.3c-1.3-0.2-2.6-0.7-2.6-0.7s-5.5-2.8-3.4-9.9c0.6-2,2.3-4.4,2.3-4.4c0.9-0.9,2.7,1.3,3.9,3.2
			c1.1,1.8,4.9,4.8,1.3,10.9c0.2-0.2,0.4-0.3,0.6-0.4c0.2-0.1,0.3-0.1,0.5,0.2c0.5,0.9,1.2,2.2,2.1,4.1c0.9,1.8,1.6,3.2,2.1,4.1
			c0.5,0.8,1.2,2.1,2.2,3.7c1,1.6,1.7,2.9,2.2,3.7C157,157.1,157,157.3,156.8,157.4z M164.7,142.5c0.8,0.8,1.4,1.3,1.9,1.5
			c0.7,0.3,1.4,0.1,2.1-0.6c0.3-0.3,0.6-0.8,1.1-1.4c0.4-0.7,0.8-1.1,1-1.4c0.1-0.1,0.2-0.1,0.4,0.1c0.2,0.2,0.5,0.5,0.8,0.9
			c0.4,0.5,0.6,0.8,0.8,0.9c0.2,0.2,0.2,0.3,0.3,0.4c0,0.1,0,0.3-0.1,0.5c-0.4,1.1-1.4,2.5-3,4c-2.2,2.1-4.2,2.2-6.2,0.2
			c-0.8-0.8-2-2-3.5-3.7c-1.5-1.6-2.7-2.9-3.5-3.7c-0.4-0.4-0.8-0.4-1.2-0.1c-0.3,0.3-0.7,0.7-1,1c-0.2,0.1-0.7-0.2-1.4-0.9
			c-0.3-0.3-0.5-0.6-0.8-0.9c-0.2-0.3-0.2-0.5,0-0.8c0.2-0.2,0.4-0.5,0.7-0.7c0.4-0.4,0.4-0.8,0.1-1.2c-0.4-0.4-0.9-0.9-1.7-1.7
			c-0.8-0.8-1.4-1.3-1.7-1.7c-0.7-0.7-0.9-1.2-0.6-1.4c0.1-0.1,1.1-0.8,3-2.1c0.2-0.2,0.4-0.2,0.6,0c0.4,0.4,1,1.1,1.7,2
			c0.8,0.9,1.3,1.5,1.7,2c0.3,0.3,0.5,0.3,0.8,0l3.3-3.3c0.2-0.2,0.3-0.2,0.4-0.1c0.1,0.1,0.3,0.3,0.5,0.6c0.2,0.3,0.4,0.5,0.5,0.6
			c0.1,0.1,0.4,0.4,0.7,0.6c0.3,0.3,0.5,0.5,0.7,0.6c0.2,0.2,0.1,0.4-0.1,0.6c-0.4,0.4-1,0.9-1.7,1.6c-0.8,0.7-1.4,1.2-1.7,1.6
			c-0.1,0.1,0.1,0.4,0.6,1c0.6,0.7,1.5,1.7,2.7,2.9L164.7,142.5z M164.2,75.3c-0.1,0.1-0.3,0.3-0.5,0.6c-0.3,0.3-0.4,0.5-0.5,0.6
			c-0.1,0.1-0.2,0.2-0.2,0.2c-0.1,0-0.2,0-0.3,0c-0.7-0.2-1.7-0.7-2.8-1.6c-1.5-1.2-1.8-2.5-0.7-3.9c0.4-0.6,1.1-1.4,2-2.5
			c0.9-1.1,1.5-1.9,2-2.5c0.2-0.3,0.2-0.5-0.1-0.7c-0.2-0.2-0.5-0.4-0.7-0.6c-0.1-0.1,0-0.5,0.4-1c0.1-0.2,0.3-0.4,0.5-0.6
			c0.1-0.1,0.3-0.2,0.5,0c0.2,0.1,0.3,0.2,0.5,0.4c0.3,0.2,0.6,0.2,0.8-0.1c0.2-0.3,0.5-0.7,0.9-1.2c0.4-0.6,0.7-1,0.9-1.2
			c0.4-0.5,0.6-0.6,0.8-0.5c0.1,0,0.6,0.6,1.6,1.7c0.1,0.1,0.2,0.3,0.1,0.4c-0.2,0.3-0.6,0.7-1.1,1.3c-0.5,0.5-0.8,1-1.1,1.2
			c-0.1,0.2-0.1,0.4,0,0.5l2.4,1.8c0.1,0.1,0.1,0.2,0.1,0.2c-0.1,0.1-0.2,0.2-0.3,0.4c-0.2,0.2-0.3,0.3-0.3,0.4
			c-0.1,0.1-0.2,0.3-0.3,0.5c-0.1,0.2-0.3,0.4-0.3,0.5c-0.1,0.1-0.2,0.1-0.4,0c-0.3-0.2-0.6-0.5-1.2-1c-0.5-0.4-0.9-0.8-1.1-1
			c-0.1,0-0.2,0.1-0.5,0.5c-0.4,0.4-0.9,1.1-1.5,1.9l-1.1,1.5c-0.4,0.6-0.7,1-0.7,1.3c-0.1,0.5,0.1,0.9,0.6,1.3
			c0.2,0.2,0.5,0.3,1,0.6c0.5,0.2,0.8,0.4,1,0.5C164.3,75.1,164.3,75.2,164.2,75.3z"/>
		<path class="st0" d="M206.5,144.1c0.2,0.2,0.3,0.2,0.4,0.2c0.1,0,0.1,0,0.2,0c0.1,0,0.2,0,0.2,0c0.2,0,0.4,0.1,0.6,0.3
			c0.4,0.4,1,0.5,1.5,0.1l2.3-2l0.4-0.3c0.2-0.2,0.3-0.4,0.3-0.7c0-0.3-0.1-0.6-0.2-0.7c-0.3-0.3-0.2-0.6-0.1-0.8
			c0-0.2,0.1-0.4-0.1-0.6c-0.2-0.3-0.4-0.2-0.5-0.2c-0.3,0-0.6,0-0.9-0.3c-0.4-0.4-1-0.5-1.5-0.1l-2.3,2l-0.4,0.3
			c-0.4,0.4-0.5,1-0.1,1.5c0.3,0.3,0.2,0.6,0.2,0.8C206.3,143.7,206.3,143.8,206.5,144.1z"/>
		<path class="st0" d="M163,15.3c0.4,2.1,3.2,3.1,4.8,1.4c0,0,1.6-2.3,0-3.9C166.2,11.2,162.6,13.1,163,15.3z"/>
		<path class="st0" d="M174.6,13.4c0,0,1.1-1.6,0-2.7c-1.1-1.1-3.6,0.3-3.3,1.8C171.6,13.9,173.6,14.6,174.6,13.4z"/>
		<path class="st0" d="M163.5,12.1c1.5,0.2,2.8-1.4,2-2.8c0,0-1.2-1.6-2.6-0.9C161.5,9.1,162,11.9,163.5,12.1z"/>
		<path class="st0" d="M167.2,9.2c1.1,0.2,1.9-0.8,1.3-1.7c0,0-0.9-1-1.9-0.6C165.7,7.2,166.1,9,167.2,9.2z"/>
		<path class="st0" d="M158.4,8c1.1,0.2,1.9-0.8,1.3-1.7c0,0-0.9-1-1.9-0.6C156.9,6,157.3,7.8,158.4,8z"/>
		<path class="st0" d="M21.6,90.7c0.4-2.6-2.7-10.2-8.7-6.4c-6.1,3.8-4,6.8-1.8,8.4C13.4,94.4,20.9,96.1,21.6,90.7z"/>
		<path class="st0" d="M24.9,81.9c2.2-1.4,1.3-3.8,0-5.3c-1.3-1.5-6.3-0.5-5.2,4C20.7,85.1,22.6,83.3,24.9,81.9z"/>
		<path class="st0" d="M11.2,82.2c0,0,1.6-2.3,0-3.9c-1.6-1.6-5.2,0.4-4.8,2.5C6.9,82.9,9.7,83.9,11.2,82.2z"/>
		<path class="st0" d="M17.3,79.8c0,0,1.1-1.6,0-2.7c-1.1-1.1-3.6,0.3-3.3,1.8C14.3,80.3,16.2,81,17.3,79.8z"/>
		<path class="st0" d="M8.1,75.7c0,0-1.2-1.6-2.6-0.9c-1.4,0.7-0.9,3.5,0.6,3.7C7.7,78.7,8.9,77.1,8.1,75.7z"/>
		<path class="st0" d="M9.9,75.6c1.1,0.2,1.9-0.8,1.3-1.7c0,0-0.9-1-1.9-0.6C8.4,73.6,8.8,75.4,9.9,75.6z"/>
		<path class="st0" d="M0.5,72c-1,0.4-0.5,2.2,0.5,2.4c1.1,0.2,1.9-0.8,1.3-1.7C2.4,72.6,1.5,71.6,0.5,72z"/>
		<path class="st0" d="M217,109.1c-4,4.9-0.8,12.5,3.8,12.5c6.5,0,4.9-8.3,4.6-10.3C225,109.4,221,104.3,217,109.1z"/>
		<path class="st0" d="M222.5,126.7c-3.6,3-0.9,7,3.7,7c3.4,0,3.6-4.7,3.6-7C229.9,124.3,226.2,123.7,222.5,126.7z"/>
		<path class="st0" d="M234.4,115.1c-2-2-6.6,0.5-6.1,3.3c0.5,2.8,4.1,4,6.1,1.8C234.4,120.1,236.4,117.1,234.4,115.1z"/>
		<path class="st0" d="M231.7,110.3c0,0,1.6-2.3,0-3.9c-1.6-1.6-5.2,0.4-4.8,2.5C227.3,111,230.1,112,231.7,110.3z"/>
		<path class="st0" d="M237.8,105.1c-1.1-1.1-3.6,0.3-3.3,1.8c0.3,1.5,2.2,2.2,3.3,1C237.8,107.9,238.9,106.2,237.8,105.1z"/>
		<path class="st0" d="M228.6,103.8c0,0-1.2-1.6-2.6-0.9c-1.4,0.7-0.9,3.5,0.6,3.7C228.1,106.8,229.4,105.2,228.6,103.8z"/>
		<path class="st0" d="M229.8,101.3c-1,0.4-0.5,2.2,0.5,2.4c1.1,0.2,1.9-0.8,1.3-1.7C231.7,102,230.8,100.9,229.8,101.3z"/>
		<path class="st0" d="M233.7,123.5c-1,0.4-0.5,2.2,0.5,2.4c1.1,0.2,1.9-0.8,1.3-1.7C235.5,124.2,234.6,123.2,233.7,123.5z"/>
		<path class="st0" d="M178.2,190.7c-1.3,2.4,3,4.1,4.1,3.4c1.1-0.8,1.9-4.2,0-5.8C181.1,187.3,179.4,188.3,178.2,190.7z"/>
		<path class="st0" d="M174.2,190.7c-1.5,0.1-5.3,3.1-5.4,5.1c-0.1,2,2.6,2.6,5.4,2.4c1.1-0.1,2.9-1.6,2.6-3.7
			C176.6,192.4,175.7,190.6,174.2,190.7z"/>
		<path class="st0" d="M107.3,66.6c1.3,0.6,2.6,0.6,3.9,0c1.3-0.6,2.1-1.6,2.5-3c0.4-1.3,0.2-2.6-0.3-3.9c-0.6-1.3-1.5-2.3-2.8-2.9
			c-1.3-0.6-2.6-0.7-3.9-0.1c-1.3,0.6-2.1,1.6-2.5,3c-0.4,1.4-0.3,2.7,0.3,4C105.1,65.1,106,66,107.3,66.6z"/>
		<path class="st0" d="M213.2,145.9c-0.1-0.2-0.4-0.2-0.5,0c-0.2,0.1-0.2,0.4,0,0.5l16,18.3c0.1,0.2,0.4,0.2,0.5,0
			c0.2-0.1,0.2-0.4,0-0.5L213.2,145.9z"/>
		<path class="st0" d="M37.7,143.1c-0.1-0.1-0.4-0.2-0.5,0l-17.6,16.8c-0.1,0.1-0.2,0.4,0,0.5c0.1,0.1,0.4,0.2,0.5,0l17.6-16.8
			C37.8,143.5,37.8,143.3,37.7,143.1z"/>
	</g>
</g>
</svg>
