<?xml version="1.0" encoding="utf-8"?>
<!-- Generator: Adobe Illustrator 19.2.1, SVG Export Plug-In . SVG Version: 6.00 Build 0)  -->
<svg version="1.1" id="Devices" xmlns="http://www.w3.org/2000/svg" xmlns:xlink="http://www.w3.org/1999/xlink" x="0px" y="0px"
	 viewBox="0 0 26.2 26.2" style="enable-background:new 0 0 26.2 26.2;" xml:space="preserve">
<style type="text/css">
	.st0{fill:none;stroke:#2D2D2D;stroke-width:1.2;stroke-linecap:round;stroke-linejoin:round;stroke-miterlimit:10;}
</style>
<g>
	<path class="st0" d="M18.8,21.1l1.4-1.4c0.6-0.6,0.5-1.5-0.1-2L17.9,16c-0.5-0.4-1.2-0.4-1.6,0l-0.5,0.4c-0.5,0.4-1.3,0.4-1.8-0.1
		l-4-4c-0.5-0.5-0.5-1.2-0.1-1.8l0.4-0.5c0.4-0.5,0.4-1.2,0-1.6L8.5,6.2C8,5.5,7.1,5.5,6.5,6L5.1,7.5c-1,1-1,3.7,4.5,9.2
		C15,22.1,17.9,22,18.8,21.1z"/>
	<path class="st0" d="M23.8,19.6c1.2-1.9,1.8-4.1,1.8-6.5c0-6.9-5.6-12.5-12.5-12.5C6.2,0.6,0.6,6.2,0.6,13.1s5.6,12.5,12.5,12.5
		c7.5,0.1,8.8-5.1,6.3-5.1"/>
</g>
</svg>
