<?xml version="1.0" encoding="utf-8"?>
<!-- Generator: Adobe Illustrator 19.2.1, SVG Export Plug-In . SVG Version: 6.00 Build 0)  -->
<svg version="1.1" id="Layer_1" xmlns="http://www.w3.org/2000/svg" xmlns:xlink="http://www.w3.org/1999/xlink" x="0px" y="0px"
	 viewBox="0 0 11.5 11.5" style="enable-background:new 0 0 11.5 11.5;" xml:space="preserve">
<style type="text/css">
	.st0{fill:#898989;}
</style>
<path class="st0" d="M7.7,4.2c0-0.4-0.2-0.8-0.5-1.1C6.9,2.8,6.6,2.7,6.1,2.7c-0.8,0-1.4,0.4-1.7,1.3l0.8,0.3
	c0.2-0.5,0.4-0.7,0.8-0.7c0.4,0,0.7,0.3,0.7,0.7c0,0.4-0.3,0.6-0.6,0.9L5.8,5.4C5.8,5.5,5.7,5.6,5.6,5.8C5.4,6,5.4,6.3,5.6,6.5h0.8
	c0-0.1,0-0.2,0-0.2C6.3,6,6.6,5.8,7,5.4C7.4,5,7.7,4.7,7.7,4.2z M5.5,7.4c-0.3,0.3-0.3,0.7,0,1c0.3,0.3,0.7,0.3,1,0
	c0.3-0.3,0.3-0.7,0-1C6.2,7.2,5.8,7.2,5.5,7.4z"/>
<g>
	<path class="st0" d="M5.8,1c2.6,0,4.8,2.1,4.8,4.8s-2.1,4.8-4.8,4.8S1,8.4,1,5.8S3.1,1,5.8,1 M5.8,0C2.6,0,0,2.6,0,5.8
		s2.6,5.8,5.8,5.8s5.8-2.6,5.8-5.8S8.9,0,5.8,0L5.8,0z"/>
</g>
</svg>
