<?xml version="1.0" encoding="utf-8"?>
<!-- Generator: Adobe Illustrator 19.2.1, SVG Export Plug-In . SVG Version: 6.00 Build 0)  -->
<svg version="1.1" id="Layer_1" xmlns="http://www.w3.org/2000/svg" xmlns:xlink="http://www.w3.org/1999/xlink" x="0px" y="0px"
	 viewBox="0 0 26.5 27.5" style="enable-background:new 0 0 26.5 27.5;" xml:space="preserve">
<style type="text/css">
	.st0{fill-rule:evenodd;clip-rule:evenodd;fill:#2D2D2D;}
</style>
<g>
	<g>
		<path class="st0" d="M25.8,13.4c-0.6,0-0.7,0.7-0.7,0.7s-0.1,1.7-0.7,3.7c-1.1,3.5-4,8.2-11,8.2C2.3,26,1.5,14.4,1.5,14.1
			c0-0.2,0.4-11.9,11.8-11.9c4.9,0,7.9,2.8,9.2,4.5h-4.7c-0.4,0-0.7,0.3-0.7,0.7c0,0.4,0.3,0.7,0.7,0.7h5.9H25V6.7v-6
			C25,0.3,24.7,0,24.3,0c-0.4,0-0.7,0.3-0.7,0.7v4.9c-2.6-3.4-6-4.9-10.3-4.9C5.9,0.7,0,6.7,0,14.1c0,7.4,5.9,13.4,13.3,13.4
			c11.4,0,13.3-11,13.3-13.4C26.5,13.8,26.4,13.4,25.8,13.4z"/>
	</g>
</g>
</svg>
