<?xml version="1.0" encoding="utf-8"?>
<!-- Generator: Adobe Illustrator 19.2.1, SVG Export Plug-In . SVG Version: 6.00 Build 0)  -->
<svg version="1.1" id="Layer_1" xmlns="http://www.w3.org/2000/svg" xmlns:xlink="http://www.w3.org/1999/xlink" x="0px" y="0px"
	 viewBox="0 0 30.5 30.5" style="enable-background:new 0 0 30.5 30.5;" xml:space="preserve">
<style type="text/css">
	.st0{fill:#2D2D2D;}
	.st1{fill-rule:evenodd;clip-rule:evenodd;fill:#2D2D2D;}
</style>
<g>
	<path class="st0" d="M15.3,2c7.3,0,13.3,5.9,13.3,13.3c0,7.3-5.9,13.2-13.3,13.2S2,22.6,2,15.3C2,7.9,7.9,2,15.3,2 M15.3,0
		C6.8,0,0,6.8,0,15.3c0,8.4,6.8,15.2,15.3,15.2c8.4,0,15.3-6.8,15.3-15.2C30.5,6.8,23.7,0,15.3,0L15.3,0z"/>
</g>
<path class="st1" d="M7.3,16.3l5.3,5.5l10.7-11.6l-1.3-1.4l-9.4,10.2l-3.9-4L7.3,16.3z"/>
</svg>
