<?xml version="1.0" encoding="utf-8"?>
<!-- Generator: Adobe Illustrator 19.2.1, SVG Export Plug-In . SVG Version: 6.00 Build 0)  -->
<svg version="1.1" id="Layer_1" xmlns="http://www.w3.org/2000/svg" xmlns:xlink="http://www.w3.org/1999/xlink" x="0px" y="0px"
	 viewBox="0 0 16.8 10.8" style="enable-background:new 0 0 16.8 10.8;" xml:space="preserve">
<style type="text/css">
	.st0{fill-rule:evenodd;clip-rule:evenodd;fill:#ffffff;}
</style>
<path class="st0" d="M8.2,10.8h1c0,0,0.3,0,0.5-0.2c0.1-0.2,0.1-0.5,0.1-0.5s0-1.5,0.6-1.8c0.6-0.2,1.4,1.5,2.2,2.1
	c0.6,0.5,1.1,0.4,1.1,0.4l2.2,0c0,0,1.2-0.1,0.6-1.1c0-0.1-0.3-0.8-1.7-2.2c-1.4-1.5-1.2-1.2,0.5-3.8c1-1.6,1.4-2.5,1.3-2.9
	c-0.1-0.4-0.9-0.3-0.9-0.3l-2.5,0c0,0-0.2,0-0.3,0.1c-0.1,0.1-0.2,0.3-0.2,0.3s-0.4,1.2-0.9,2.2c-1.1,2.2-1.6,2.3-1.8,2.1
	C9.7,4.9,9.8,4,9.8,3.3c0-2.1,0.3-3-0.5-3.2C9,0.1,8.8,0,8.1,0C7.2,0,6.4,0,6,0.2C5.7,0.4,5.5,0.8,5.6,0.8c0.2,0,0.5,0.1,0.7,0.4
	c0.3,0.4,0.3,1.3,0.3,1.3s0.1,2.5-0.3,2.8C5.9,5.5,5.5,5,4.4,3.1C3.9,2.1,3.5,1,3.5,1S3.5,0.7,3.3,0.6C3.2,0.5,3,0.5,3,0.5l-2.4,0
	c0,0-0.4,0-0.5,0.2c-0.1,0.2,0,0.5,0,0.5s1.9,5,4,7.5C6,10.9,8.2,10.8,8.2,10.8z"/>
</svg>
