<?xml version="1.0" encoding="utf-8"?>
<!-- Generator: Adobe Illustrator 19.2.1, SVG Export Plug-In . SVG Version: 6.00 Build 0)  -->
<svg version="1.1" id="Multimedia" xmlns="http://www.w3.org/2000/svg" xmlns:xlink="http://www.w3.org/1999/xlink" x="0px" y="0px"
	 viewBox="0 0 28.2 24.2" style="enable-background:new 0 0 28.2 24.2;" xml:space="preserve">
<style type="text/css">
	.st0{fill:none;stroke:#2D2D2D;stroke-width:1.2;stroke-linecap:round;stroke-linejoin:round;stroke-miterlimit:10;}
</style>
<g>
	<path class="st0" d="M25.3,0.9l-10.1,9.7c-1.2,1.1-3,1.1-4.2,0L0.9,0.9"/>
	<line class="st0" x1="9.4" y1="9.1" x2="0.9" y2="17.3"/>
	<path class="st0" d="M25.6,8.6v-7c0-0.6-0.4-1-1-1h-23c-0.6,0-1,0.4-1,1v15c0,0.6,0.4,1,1,1h13"/>
	<path class="st0" d="M27.3,14.7l-1.4,1.4l-2.8-2.8l1.4-1.4c0.4-0.4,1-0.4,1.4,0l1.4,1.4C27.7,13.7,27.7,14.3,27.3,14.7z"/>
	<polyline class="st0" points="17,19.4 19.1,20.1 19.8,22.2 	"/>
	<polygon class="st0" points="19.8,22.2 15.6,23.6 17,19.4 23.1,13.3 25.9,16.1 	"/>
</g>
</svg>
