<?xml version="1.0" encoding="utf-8"?>
<!-- Generator: Adobe Illustrator 19.2.1, SVG Export Plug-In . SVG Version: 6.00 Build 0)  -->
<svg version="1.1" id="Layer_1" xmlns="http://www.w3.org/2000/svg" xmlns:xlink="http://www.w3.org/1999/xlink" x="0px" y="0px"
	 viewBox="0 0 36.3 29.9" style="enable-background:new 0 0 36.3 29.9;" xml:space="preserve">
<style type="text/css">
	.st0{fill:#BFBFBF;}
</style>
<path class="st0" d="M0,19.6c0,3,0.9,5.5,2.6,7.4c1.7,1.9,3.7,2.8,5.9,2.8c1.5,0,2.9-0.7,4-2c1.2-1.3,1.8-2.9,1.8-4.7
	c0-1.7-0.5-3.1-1.6-4.2c-1.1-1.1-2.4-1.7-3.9-1.7c-0.6,0-1.3,0.1-2.1,0.3l-0.5,0.1c-0.8,0-1.3-0.6-1.3-1.8c0-1.8,0.8-3.9,2.4-6.3
	c1.6-2.4,4.2-4.9,7.6-7.4L13.2,0C4.4,5.8,0,12.4,0,19.6L0,19.6z M21.5,19.6c0,3,0.8,5.5,2.5,7.4c1.7,1.9,3.7,2.8,5.9,2.8
	c1.5,0,2.8-0.6,4-2c1.2-1.3,1.8-2.9,1.8-4.7c0-1.7-0.5-3.1-1.6-4.2c-1.1-1.1-2.4-1.7-4-1.7c-0.5,0-1.2,0.1-2.1,0.3l-0.5,0.1
	c-0.8,0-1.2-0.6-1.2-1.8c0-1.8,0.8-3.9,2.4-6.3s4.2-4.9,7.6-7.4L34.6,0C25.8,5.8,21.5,12.4,21.5,19.6L21.5,19.6z"/>
</svg>
