<?xml version="1.0" encoding="utf-8"?>
<!-- Generator: Adobe Illustrator 19.2.1, SVG Export Plug-In . SVG Version: 6.00 Build 0)  -->
<svg version="1.1" id="Layer_1" xmlns="http://www.w3.org/2000/svg" xmlns:xlink="http://www.w3.org/1999/xlink" x="0px" y="0px"
	 viewBox="0 0 30 38" style="enable-background:new 0 0 30 38;" xml:space="preserve">
<style type="text/css">
	.st0{fill-rule:evenodd;clip-rule:evenodd;fill:#A9A9A9;}
	.st1{fill:#A9A9A9;}
</style>
<path class="st0" d="M5,27h21v2H5V27z"/>
<path class="st0" d="M5,22h21v2H5V22z"/>
<path class="st0" d="M9,18h2v15H9V18z"/>
<path class="st0" d="M14,18h2v15h-2V18z"/>
<path class="st0" d="M19,18h2v15h-2V18z"/>
<g>
	<path class="st1" d="M24,19v13H6V19H24 M24,17H6c-1.1,0-2,0.9-2,2v13c0,1.1,0.9,2,2,2h18c1.1,0,2-0.9,2-2V19C26,17.9,25.1,17,24,17
		L24,17z"/>
</g>
<g>
	<path class="st1" d="M27,2c0.6,0,1,0.4,1,1v32c0,0.6-0.4,1-1,1H3c-0.6,0-1-0.4-1-1V3c0-0.6,0.4-1,1-1H27 M27,0H3C1.3,0,0,1.3,0,3
		v32c0,1.7,1.3,3,3,3h24c1.7,0,3-1.3,3-3V3C30,1.3,28.7,0,27,0L27,0z"/>
</g>
<path class="st0" d="M21,7h2v2h-2V7z"/>
<path class="st0" d="M18,7h2v2h-2V7z"/>
<path class="st0" d="M15,7h2v2h-2V7z"/>
<g>
	<path class="st1" d="M24,6v5H6V6H24 M26,4H4v9h22V4L26,4z"/>
</g>
</svg>
