<?xml version="1.0" encoding="utf-8"?>
<!-- Generator: Adobe Illustrator 18.1.0, SVG Export Plug-In . SVG Version: 6.00 Build 0)  -->
<svg version="1.1" id="Layer_1" xmlns="http://www.w3.org/2000/svg" xmlns:xlink="http://www.w3.org/1999/xlink" x="0px" y="0px"
	 viewBox="0 0 595.3 595.3" enable-background="new 0 0 595.3 595.3" xml:space="preserve">
<g>
	<path fill="#FFFFFF" stroke="#FFFFFF" stroke-miterlimit="10" d="M297.6,28.3c147.4,0,269.3,121.9,269.3,269.3
		S445,566.9,297.6,566.9S28.3,445,28.3,297.6S150.2,28.3,297.6,28.3 M297.6,0C133.2,0,0,133.2,0,297.6s133.2,297.6,297.6,297.6
		s297.6-133.2,297.6-297.6S462.1,0,297.6,0L297.6,0z"/>
</g>
<rect x="283.4" y="138.8" transform="matrix(-0.7071 0.7071 -0.7071 -0.7071 721.3058 304.7919)" fill="#FFFFFF" width="28.3" height="326"/>
<rect x="134.3" y="289.7" transform="matrix(-0.7071 0.7071 -0.7071 -0.7071 722.361 308.5847)" fill="#FFFFFF" width="326" height="28.3"/>
</svg>
