<?xml version="1.0" encoding="utf-8"?>
<!-- Generator: Adobe Illustrator 19.2.1, SVG Export Plug-In . SVG Version: 6.00 Build 0)  -->
<svg version="1.1" id="Layer_1" xmlns="http://www.w3.org/2000/svg" xmlns:xlink="http://www.w3.org/1999/xlink" x="0px" y="0px"
	 viewBox="0 0 21 21" style="enable-background:new 0 0 21 21;" xml:space="preserve">
<style type="text/css">
	.st0{fill:#585858;}
</style>
<g>
	<path class="st0" d="M10.5,1c5.2,0,9.5,4.3,9.5,9.5S15.7,20,10.5,20S1,15.7,1,10.5S5.3,1,10.5,1 M10.5,0C4.7,0,0,4.7,0,10.5
		S4.7,21,10.5,21S21,16.3,21,10.5S16.3,0,10.5,0L10.5,0z"/>
</g>
<rect x="10" y="4.9" transform="matrix(0.7071 -0.7071 0.7071 0.7071 -4.4591 10.5401)" class="st0" width="1" height="11.5"/>
<rect x="4.7" y="10.2" transform="matrix(0.7071 -0.7071 0.7071 0.7071 -4.4682 10.544)" class="st0" width="11.5" height="1"/>
</svg>
