<?xml version="1.0" encoding="utf-8"?>
<!-- Generator: Adobe Illustrator 19.2.1, SVG Export Plug-In . SVG Version: 6.00 Build 0)  -->
<svg version="1.1" id="Layer_1" xmlns="http://www.w3.org/2000/svg" xmlns:xlink="http://www.w3.org/1999/xlink" x="0px" y="0px"
	 viewBox="0 0 19 20.5" style="enable-background:new 0 0 19 20.5;" xml:space="preserve">
<style type="text/css">
	.st0{fill:#6C6C6C;}
	.st1{fill-rule:evenodd;clip-rule:evenodd;fill:none;stroke:#6C6C6C;stroke-miterlimit:10;}
	.st2{fill-rule:evenodd;clip-rule:evenodd;fill:#6C6C6C;}
</style>
<g>
	<path class="st0" d="M17.8,1.8v17l-5.5-2.2V3.9L17.8,1.8 M19,0l-7.9,3.1v14.3l7.9,3.1V0L19,0z"/>
</g>
<g>
	<path class="st0" d="M17.8,1.2v18.1H6.7V1.2H17.8 M19,0H5.5v20.5H19V0L19,0z"/>
</g>
<path class="st1" d="M4.2,7.6l-2.7,2.7l2.7,2.7"/>
<path class="st2" d="M11.6,9.8h1.8c0.2,0,0.4,0.2,0.4,0.4v0c0,0.2-0.2,0.4-0.4,0.4h-1.8c-0.2,0-0.4-0.2-0.4-0.4v0
	C11.1,10,11.3,9.8,11.6,9.8z"/>
<path class="st2" d="M1.7,9.8H10c0.2,0,0.4,0.2,0.4,0.4v0c0,0.2-0.2,0.4-0.4,0.4H1.7c-0.2,0-0.4-0.2-0.4-0.4v0
	C1.2,10,1.4,9.8,1.7,9.8z"/>
</svg>
